<mxfile host="app.diagrams.net" modified="2023-10-09T08:06:50.237Z" agent="Mozilla/5.0 (Windows NT 10.0; Win64; x64) AppleWebKit/537.36 (KHTML, like Gecko) Chrome/114.0.0.0 Safari/537.36" version="22.0.4" etag="LK7zhoz80yAIfpjakfsj" type="github">
  <diagram name="第 1 页" id="ZWAHK5YXZL5VfslPSZHF">
    <mxGraphModel>
      <root>
        <mxCell id="0" />
        <mxCell id="1" parent="0" />
      </root>
    </mxGraphModel>
  </diagram>
</mxfile>
